P3
2 2
255
255 254 0 255 254 0 
255 0 254 255 0 254 
