P3
4 4
255
255 0 87  255 0 87  255 0 87  255 0 87
255 254 0  255 254 0  255 254 0  255 254 0
255 0 254  255 0 254  255 0 254  255 0 254
0 255 0  0 255 0  0 255 0  0 255 0
