P3
4 4
255
114 114 114  114 114 114  114 114 114  114 114 114  
169 169 169  169 169 169  169 169 169  169 169 169  
169 169 169  169 169 169  169 169 169  169 169 169  
85 85 85  85 85 85  85 85 85  85 85 85  
